<?xml version="1.0" encoding="utf-8"?>
<!-- Generator: Adobe Illustrator 17.0.0, SVG Export Plug-In . SVG Version: 6.00 Build 0)  -->
<!DOCTYPE svg PUBLIC "-//W3C//DTD SVG 1.1//EN" "http://www.w3.org/Graphics/SVG/1.1/DTD/svg11.dtd">
<svg version="1.1" id="Layer_1" xmlns="http://www.w3.org/2000/svg" xmlns:xlink="http://www.w3.org/1999/xlink" x="0px" y="0px"
	 width="117.113px" height="30.114px" viewBox="0 0 117.113 30.114" enable-background="new 0 0 117.113 30.114"
	 xml:space="preserve">
<polygon fill="#5B9A68" points="11.161,23.57 8.105,21.476 8.585,20.765 11.161,22.526 11.161,17.521 13.9,17.521 13.9,20.723 
	16.417,19.396 16.845,20.183 13.9,21.74 13.9,24.042 18.617,21.681 18.993,22.443 13.9,24.993 13.9,29.916 24.959,29.916 12.479,0 
	0,29.916 11.161,29.916 "/>
<g>
	<path fill="#FFFFFF" d="M35.98,10.547c0-1.054,0.812-1.866,1.866-1.866h12.282c0.933,0,1.685,0.752,1.685,1.686
		c0,0.933-0.752,1.686-1.685,1.686H39.683v5.75h9.091c0.933,0,1.686,0.752,1.686,1.686c0,0.933-0.753,1.686-1.686,1.686h-9.091
		v6.893c0,1.024-0.812,1.836-1.836,1.836c-1.054,0-1.866-0.812-1.866-1.836V10.547z"/>
	<path fill="#FFFFFF" d="M51.964,21.896v-0.061c0-4.545,3.612-8.308,8.489-8.308c4.876,0,8.459,3.703,8.459,8.248v0.06
		c0,4.516-3.612,8.278-8.519,8.278C55.547,30.114,51.964,26.411,51.964,21.896z M65.269,21.896v-0.061
		c0-2.799-2.017-5.117-4.876-5.117c-2.92,0-4.786,2.288-4.786,5.057v0.06c0,2.77,2.017,5.087,4.846,5.087
		C63.403,26.923,65.269,24.635,65.269,21.896z"/>
	<path fill="#FFFFFF" d="M71.064,15.514c0-1.023,0.783-1.836,1.806-1.836c1.023,0,1.836,0.813,1.836,1.836v1.626
		c0.843-1.987,2.408-3.492,4.004-3.492c1.144,0,1.806,0.752,1.806,1.806c0,0.963-0.632,1.595-1.445,1.746
		c-2.589,0.451-4.365,2.438-4.365,6.201v4.696c0,0.994-0.812,1.806-1.836,1.806c-0.994,0-1.806-0.782-1.806-1.806V15.514z"/>
	<path fill="#FFFFFF" d="M82.503,15.514c0-1.023,0.782-1.836,1.806-1.836c1.023,0,1.836,0.813,1.836,1.836v1.626
		c0.843-1.987,2.408-3.492,4.003-3.492c1.144,0,1.806,0.752,1.806,1.806c0,0.963-0.632,1.595-1.445,1.746
		c-2.589,0.451-4.365,2.438-4.365,6.201v4.696c0,0.994-0.813,1.806-1.836,1.806c-0.994,0-1.806-0.782-1.806-1.806V15.514z"/>
	<path fill="#FFFFFF" d="M93.39,28.157c-0.392-0.211-0.692-0.663-0.692-1.265c0-0.812,0.632-1.475,1.475-1.475
		c0.301,0,0.572,0.09,0.783,0.211c1.535,1.023,3.13,1.535,4.575,1.535c1.565,0,2.468-0.662,2.468-1.716v-0.06
		c0-1.234-1.686-1.656-3.552-2.227c-2.348-0.662-4.967-1.625-4.967-4.666v-0.06c0-3.01,2.499-4.847,5.659-4.847
		c1.686,0,3.461,0.482,4.997,1.295c0.512,0.271,0.873,0.752,0.873,1.384c0,0.843-0.662,1.475-1.505,1.475
		c-0.301,0-0.482-0.06-0.723-0.181c-1.294-0.662-2.619-1.083-3.732-1.083c-1.415,0-2.228,0.662-2.228,1.565v0.06
		c0,1.174,1.716,1.656,3.582,2.258c2.318,0.722,4.936,1.776,4.936,4.636v0.06c0,3.341-2.588,4.997-5.9,4.997
		C97.423,30.053,95.226,29.421,93.39,28.157z"/>
	<path fill="#FFFFFF" d="M109.016,25.358v-8.368h-0.602c-0.873,0-1.565-0.692-1.565-1.565c0-0.873,0.692-1.565,1.565-1.565h0.602
		v-2.709c0-0.993,0.812-1.806,1.836-1.806c0.993,0,1.806,0.813,1.806,1.806v2.709h2.86c0.873,0,1.595,0.692,1.595,1.565
		c0,0.873-0.722,1.565-1.595,1.565h-2.86v7.796c0,1.414,0.723,1.987,1.957,1.987c0.421,0,0.783-0.09,0.903-0.09
		c0.812,0,1.535,0.662,1.535,1.505c0,0.662-0.452,1.204-0.963,1.415c-0.783,0.271-1.535,0.421-2.498,0.421
		C110.912,30.023,109.016,28.849,109.016,25.358z"/>
</g>
</svg>
